<svg xmlns="http://www.w3.org/2000/svg" xmlns:xlink="http://www.w3.org/1999/xlink" version="1.0" x="0px" y="0px" viewBox="0 0 100 100" enable-background="new 0 0 100 100" xml:space="preserve"><g><path fill="#000000" d="M73.694,55.353l-17.159-7.988c0.054-1.823-0.88-3.608-2.596-4.529c-0.745-0.402-1.551-0.593-2.342-0.593   c-1.771,0-3.486,0.951-4.381,2.62c-1.297,2.415-0.388,5.426,2.027,6.723c0.739,0.395,1.533,0.583,2.316,0.583   c1.033,0,2.047-0.325,2.894-0.926l15.999,7.366v4.76v23.758c0,1.215,0.985,2.201,2.201,2.201s2.2-0.986,2.2-2.201V61.02v-3.729   c0-0.176-0.026-0.346-0.069-0.51C74.641,56.179,74.256,55.652,73.694,55.353z"/><path fill="#000000" d="M95.892,42.075L51.801,21.46C51.23,21.193,50.615,21.06,50,21.06s-1.23,0.134-1.801,0.401L4.11,42.075   c-1.458,0.681-2.406,2.129-2.45,3.738c-0.042,1.609,0.827,3.104,2.247,3.863l15.208,8.123v11.262L50,85.27l17.265-9.025V65.072   V63.58v-2.928l-0.401-0.186L50,69.475L5.911,45.925L50,25.311l44.09,20.614l-16.657,8.897c0.389,0.75,0.61,1.59,0.61,2.469v2.023   l0.069-0.037v11.145l6.03-3.152V56.059l11.951-6.383c1.42-0.759,2.29-2.253,2.246-3.863C98.297,44.204,97.35,42.755,95.892,42.075z   "/></g></svg>