<svg xmlns="http://www.w3.org/2000/svg" xmlns:xlink="http://www.w3.org/1999/xlink" xmlns:sketch="http://www.bohemiancoding.com/sketch/ns" viewBox="0 0 100 100" version="1.1" x="0px" y="0px"><title>suitecase</title><description>Created with Sketch (http://www.bohemiancoding.com/sketch)</description><g stroke="none" stroke-width="1" fill="none" fill-rule="evenodd" sketch:type="MSPage"><path d="M63,41 L63,46 L95,46 L95,81 L5,81 L5,46 L36.9968262,46 L36.9968262,41 L1.15019105e-13,41 L0,81 C1.53379051e-06,86 4.99999967,86 4.99999967,86 L95,86 C95,86 100,86 100,81 L100,41 L63,41 Z M95,36 L95,19 L5,19 L5,36 L1.15463195e-13,36 L0,19 C0,14 4.99999967,14 4.99999967,14 L95,14 C95,14 100,14 100,19 L100,36 L95,36 Z M58,12 L58,5.00000005 L42,5.00000005 L42,12 L37,12 L37,5 C37,2.22044605e-16 41.9999997,0 41.9999997,0 L58,0 C58,0 63,2.22044605e-16 63,5.00000005 L63,12 L58,12 Z M42,32 L42,50 L58,50 L58,32 L42,32 Z M47,37 L47,45 L53,45 L53,37 L47,37 Z M47,37" fill="#000000" sketch:type="MSShapeGroup"/></g></svg>